PathFileType	4	(X/Y/Z)	C:/Users/opensim2020/Desktop/walking_exp_matlab/subject06_walking12_straigt_01.trc																																																																																																																																														
DataRate	CameraRate	NumFrames	NumMarkers	Units	OrigDataRate	OrigDataStartFrame	OrigNumFrames																																																																																																																																										
100	100	4	48	mm	100	942	196																																																																																																																																										
Frame#	Time	LFHD			RFHD			LBHD			RBHD			C7			T10			CLAV			STRN			RBAK			LSHO			LUPA			LELB			LFRM			LWRA			LWRB			LFIN			RSHO			RUPA			RELB			RFRM			RWRA			RWRB			RFIN			LASI			RASI			LPSI			RPSI			LTHI			LKNE			LTIB			LANK			LHEE			LTOE			RTHI			RKNE			RTIB			RANK			RHEE			RTOE			*39			*40			*41			*42			*43			*44			*45			*46			*47		
		X1	Y1	Z1	X2	Y2	Z2	X3	Y3	Z3	X4	Y4	Z4	X5	Y5	Z5	X6	Y6	Z6	X7	Y7	Z7	X8	Y8	Z8	X9	Y9	Z9	X10	Y10	Z10	X11	Y11	Z11	X12	Y12	Z12	X13	Y13	Z13	X14	Y14	Z14	X15	Y15	Z15	X16	Y16	Z16	X17	Y17	Z17	X18	Y18	Z18	X19	Y19	Z19	X20	Y20	Z20	X21	Y21	Z21	X22	Y22	Z22	X23	Y23	Z23	X24	Y24	Z24	X25	Y25	Z25	X26	Y26	Z26	X27	Y27	Z27	X28	Y28	Z28	X29	Y29	Z29	X30	Y30	Z30	X31	Y31	Z31	X32	Y32	Z32	X33	Y33	Z33	X34	Y34	Z34	X35	Y35	Z35	X36	Y36	Z36	X37	Y37	Z37	X38	Y38	Z38	X39	Y39	Z39	X40	Y40	Z40	X41	Y41	Z41	X42	Y42	Z42	X43	Y43	Z43	X44	Y44	Z44	X45	Y45	Z45	X46	Y46	Z46	X47	Y47	Z47	X48	Y48	Z48
																																																																																																																																																	
148	1.47	-1071.27991	1637.73499	-632.60956	-941.88306	1618.26001	-616.35425	-1091.02332	1601.81543	-495.03488	-963.24951	1587.13672	-480.54727	-1041.70618	1433.27368	-469.66068	-1035.02563	1102.11902	-433.80505	-1035.60657	1352.46204	-579.17517	-1047.8429	1177.37854	-617.07275	-972.47424	1257.9707	-391.3736	-1198.03943	1390.85693	-531.18542	-1274.90137	1196.5	-573.18976	-1290.31445	1089.17664	-606.55487	-1297.8324	987.41119	-717.42377	-1235.27063	944.39325	-829.44812	-1278.98254	899.85834	-796.73627	-1266.92285	872.10254	-881.58551	-877.00714	1382.08691	-521.64917	-797.00519	1187.85901	-459.01398	-783.58771	1065.9436	-456.77991	-762.80334	946.27551	-450.10321	-783.49438	796.34143	-483.70993	-750.03925	809.82867	-427.42194	-742.90997	727.61505	-447.79337	-1152.59119	936.01776	-602.83502	-931.10583	946.07745	-618.8866	-1111.43347	971.10901	-447.60278	-943.10345	972.19135	-465.84439	-1194.86401	633.2229	-474.41144	-1170.604	474.40536	-428.47122	-1155.30408	256.88852	-287.29013	-1110.66846	106.32036	-204.11794	-1066.86218	109.11502	-159.36607	-1103.29675	33.7264	-329.07779	-862.00012	622.29608	-629.81293	-892.05688	507.86099	-679.00214	-896.52362	255.54495	-732.2287	-942.79059	84.63287	-795.25171	-990.61884	69.19328	-765.07825	-946.52191	33.4675	-956.37396	-1020.58258	1685.276	-531.82355	NaN	NaN	NaN	NaN	NaN	NaN	NaN	NaN	NaN	NaN	NaN	NaN	NaN	NaN	NaN	NaN	NaN	NaN	NaN	NaN	NaN	NaN	NaN	NaN
149	1.48	-1069.48303	1637.50256	-643.93988	-940.1759	1617.6698	-627.63177	-1089.43042	1601.01221	-506.54861	-961.69684	1586.02466	-492.06815	-1040.21448	1432.52551	-481.75351	-1033.87695	1101.36292	-446.60373	-1034.42334	1351.87244	-591.46008	-1047.03638	1176.87366	-629.49811	-971.1637	1257.09912	-403.85419	-1196.86279	1390.63245	-543.35797	-1274.02197	1195.91028	-584.31433	-1289.17078	1088.44299	-616.90582	-1295.78552	986.4151	-727.33746	-1233.08667	943.61591	-839.36328	-1277.21008	899.19867	-807.10626	-1264.53345	871.50146	-891.92371	-875.70386	1381.17419	-534.15143	-795.87598	1186.74963	-471.8978	-782.70575	1064.80322	-469.90259	-761.97546	945.10504	-463.26489	-783.01776	795.16614	-497.02747	-749.39825	808.63416	-441.02213	-742.44513	726.40265	-461.33817	-1152.31702	935.3172	-615.31134	-930.49713	945.63257	-631.94537	-1110.57678	970.14032	-460.55231	-942.336	971.7287	-478.75613	-1194.33179	632.29724	-486.12186	-1169.98279	473.547	-440.24936	-1155.13086	259.06342	-294.33771	-1110.99561	110.67462	-207.30013	-1067.32788	114.77225	-162.62137	-1103.10657	33.90528	-329.74539	-861.4422	622.74945	-643.20001	-892.16461	508.25958	-691.62274	-897.3064	252.98593	-738.81757	-943.82745	80.62924	-796.43927	-989.69659	62.43417	-765.76788	-948.33875	32.62771	-958.95569	-1018.85474	1684.46802	-542.97461	NaN	NaN	NaN	NaN	NaN	NaN	NaN	NaN	NaN	NaN	NaN	NaN	NaN	NaN	NaN	NaN	NaN	NaN	NaN	NaN	NaN	NaN	NaN	NaN
150	1.49	-1067.73608	1637.67505	-655.31415	-938.46552	1617.38037	-639.0957	-1087.8374	1600.32739	-518.13019	-960.1424	1584.99255	-503.6926	-1038.72559	1432.01611	-493.75183	-1032.83875	1100.82178	-459.35287	-1033.19299	1351.50342	-603.76379	-1046.17358	1176.4967	-642.05933	-969.78918	1256.3656	-416.26447	-1195.60144	1390.23206	-555.5506	-1272.77112	1195.13147	-595.17102	-1287.83228	1087.41943	-627.14673	-1294.63501	985.49237	-737.69702	-1231.00122	942.41138	-849.13391	-1275.44727	898.11371	-817.07819	-1262.28076	870.33215	-901.78955	-874.28668	1380.34766	-546.75616	-794.70868	1185.71619	-484.98331	-781.7002	1063.71411	-483.15036	-761.18176	943.95734	-476.77026	-782.48907	794.14154	-510.62338	-748.86249	807.39386	-454.51154	-741.93744	725.28564	-475.08261	-1152.01721	934.66669	-628.14661	-929.90302	945.50928	-645.20807	-1109.84192	969.68274	-473.04535	-941.59161	971.5415	-491.76724	-1193.69397	631.43719	-498.25189	-1169.25732	472.77139	-452.37729	-1154.96948	261.53912	-301.81	-1111.43262	115.34303	-210.98965	-1067.86597	120.90046	-166.52127	-1102.97693	34.12835	-330.53659	-860.87189	623.46527	-657.03296	-892.08832	509.32111	-704.47455	-898.28113	250.95796	-744.84192	-945.58673	76.69245	-795.92651	-990.75659	56.97028	-764.83215	-950.12317	32.04061	-959.84973	-1017.03632	1683.89417	-554.04327	NaN	NaN	NaN	NaN	NaN	NaN	NaN	NaN	NaN	NaN	NaN	NaN	NaN	NaN	NaN	NaN	NaN	NaN	NaN	NaN	NaN	NaN	NaN	NaN
151	1.5	-1065.96826	1637.96985	-666.7807	-936.67963	1617.30933	-650.55475	-1086.20166	1599.96167	-529.8363	-958.49615	1584.25439	-515.34534	-1037.23206	1431.74695	-505.9288	-1031.9845	1100.41199	-472.38995	-1031.89551	1351.3678	-616.06122	-1045.26294	1176.44287	-654.67511	-968.35095	1255.75854	-428.76559	-1194.35864	1390.00562	-567.75922	-1271.34351	1194.30273	-606.01526	-1286.59253	1086.48413	-637.40143	-1293.09753	984.19995	-747.42993	-1229.09644	940.70758	-858.47485	-1273.87134	896.68701	-826.69116	-1260.27051	868.65344	-911.23578	-872.81189	1379.69421	-559.40399	-793.46857	1184.74731	-498.27771	-780.64856	1062.7572	-496.60043	-760.36969	942.92059	-490.45422	-782.0282	793.22382	-524.42053	-748.05701	806.40564	-468.60443	-741.33478	724.1958	-489.32455	-1151.68018	934.2074	-641.23737	-929.20874	945.77185	-658.49402	-1109.12207	969.24738	-486.04495	-940.82727	971.74396	-504.92322	-1192.83716	630.73022	-510.90479	-1168.40576	472.10361	-465.09827	-1154.65649	264.23892	-309.99561	-1111.85107	120.42066	-215.36621	-1068.42322	127.50083	-171.15179	-1102.68872	34.33031	-331.41238	-860.6333	624.55963	-671.21399	-893.00891	510.92661	-717.44293	-899.14276	249.92252	-751.1189	-947.14331	73.58498	-795.13031	-991.76898	52.65667	-763.37152	-952.08276	31.71497	-959.53394	-1015.16425	1683.51819	-565.19324	NaN	NaN	NaN	NaN	NaN	NaN	NaN	NaN	NaN	NaN	NaN	NaN	NaN	NaN	NaN	NaN	NaN	NaN	NaN	NaN	NaN	NaN	NaN	NaN
